<svg width="58" height="63" viewBox="0 0 58 63" fill="none" xmlns="http://www.w3.org/2000/svg">
<path d="M35.9047 55.4532C33.9048 57.034 31.224 57.454 28.8365 56.5604V56.5604C27.7551 56.1557 26.7855 55.4996 26.0076 54.6462L24.2023 52.6658C22.976 51.3206 21.9746 49.7866 21.2364 48.1227V48.1227C20.9092 47.3853 20.5298 46.6722 20.101 45.9888L12.6989 34.1915C2.08996 23.2721 16.0272 5.24443 32.6828 15.5215C45.2182 4.16202 58.3148 16.2697 54.2431 29.1123C53.3861 31.8154 52.0801 34.3751 51.307 37.1033V37.1033V37.1033C50.2003 39.6093 48.8482 41.9997 47.2706 44.2393L46.5243 45.2989C45.3895 46.9099 44.0789 48.3896 42.6166 49.7107L38.7498 53.2041L35.9047 55.4532Z" fill="black" stroke="black" stroke-linecap="round" stroke-linejoin="round"/>
<path d="M19.3418 45.7042L20.4815 45.7259L19.9967 46.3617L19.1103 45.8169L19.3418 45.7042ZM18.0028 46.3563L19.0561 46.9968L18.3513 47.34L17.3041 46.6965L17.6431 46.5314L18.0028 46.3563ZM15.837 47.4109L16.1966 47.2358L17.2499 47.8763L16.5451 48.2196L15.498 47.576L15.837 47.4109ZM11.1289 47.2308L12.6864 48.1779L12.767 48.3499L13.6318 50.1944L13.7124 50.3663L13.4576 52.1915C13.4503 52.1806 13.4454 52.1722 13.4429 52.1677C13.4427 52.1674 13.4425 52.1671 13.4424 52.1668L11.1393 47.2545C11.1354 47.2461 11.1319 47.2382 11.1289 47.2308ZM13.8783 48.3648L14.0309 48.2905L14.3905 48.1154L15.4438 48.7559L14.3186 49.3038L13.8783 48.3648Z" fill="black" stroke="black"/>
<path d="M9.10493 28.3788L10.019 29.0782L9.25995 29.3048L8.85316 28.3322L9.10493 28.3788ZM7.644 28.1087L8.13153 29.2595L7.36441 29.1176L6.88358 27.968L7.25349 28.0364L7.644 28.1087ZM5.28391 27.6722L5.67442 27.7444L6.16195 28.8953L5.39483 28.7534L4.914 27.6038L5.28391 27.6722ZM1.57044 24.7225L2.28736 26.4148L2.25378 26.6034L1.89569 28.6148L1.86211 28.8035L0.610483 30.1281C0.610837 30.1165 0.6116 30.1078 0.612103 30.1031C0.612152 30.1026 0.612197 30.1022 0.612239 30.1018L1.56594 24.7449C1.56736 24.7369 1.56887 24.7295 1.57044 24.7225ZM3.14947 27.2775L3.31433 27.308L3.70484 27.3802L4.19238 28.5311L2.96665 28.3044L3.14947 27.2775Z" fill="black" stroke="black"/>
<path d="M14.3797 15.6828L14.7162 16.7853L13.9735 16.5173L14.2006 15.4931L14.3797 15.6828ZM13.3518 14.5939L13.0885 15.807L12.5449 15.2311L12.8128 14.023L13.073 14.2986L13.3518 14.5939ZM11.6852 12.8284L11.9639 13.1237L11.7007 14.3368L11.1571 13.761L11.425 12.5528L11.6852 12.8284ZM10.3754 8.20873L9.98146 10.0242L9.84853 10.1545L8.40305 11.5718L8.27012 11.7021L6.48073 12.0321C6.48149 12.031 6.48226 12.03 6.48303 12.0289C6.49148 12.0174 6.49841 12.0092 6.50186 12.0053C6.50202 12.0051 6.50218 12.0049 6.50232 12.0048L10.3517 8.23045C10.3602 8.22217 10.3681 8.21498 10.3754 8.20873ZM10.178 11.2317L10.2973 11.3582L10.5761 11.6535L10.3129 12.8667L9.44652 11.9489L10.178 11.2317Z" fill="black" stroke="black"/>
<path d="M14.7081 26.4881L15.8373 26.349L15.4441 27.0465L14.4936 26.6329L14.7081 26.4881ZM13.4711 27.3228L14.5989 27.8073L13.9467 28.2474L12.8246 27.7591L13.1377 27.5478L13.4711 27.3228ZM11.4686 28.6739L11.802 28.449L12.9298 28.9335L12.2776 29.3736L11.1555 28.8853L11.4686 28.6739ZM6.77877 29.1583L8.45361 29.8778L8.55633 30.0359L9.66361 31.7404L9.76633 31.8986L9.76224 33.7456C9.75268 33.7351 9.74608 33.7268 9.74289 33.7225C9.74269 33.7223 9.7425 33.722 9.74233 33.7218L6.79346 29.1823C6.78791 29.1738 6.78304 29.1658 6.77877 29.1583ZM9.65766 29.8959L9.79955 29.8001L10.1329 29.5752L11.2607 30.0597L10.2202 30.7618L9.65766 29.8959Z" fill="black" stroke="black"/>
<path d="M22.0223 18.4426L21.3303 19.3447L21.1245 18.573L22.0737 18.1829L22.0223 18.4426ZM22.3151 16.9634L21.196 17.4296L21.3518 16.6425L22.4696 16.1831L22.3955 16.557L22.3151 16.9634ZM22.7914 14.5572L22.7109 14.9636L21.5918 15.4298L21.7476 14.6427L22.8654 14.1833L22.7914 14.5572ZM25.7847 10.8288L24.0835 11.5375L23.906 11.501L21.9398 11.0968L21.7623 11.0603L20.4688 9.74017C20.4731 9.74017 20.4774 9.74024 20.4816 9.74039C20.4953 9.74087 20.5054 9.74199 20.5102 9.74262C20.5103 9.74263 20.5104 9.74264 20.5104 9.74265L25.7461 10.8191C25.761 10.8221 25.7738 10.8254 25.7847 10.8288ZM23.2221 12.3813L23.1872 12.5574L23.1068 12.9638L21.9876 13.43L22.2354 12.1785L23.2221 12.3813Z" fill="black" stroke="black"/>
<path d="M40.2335 44.6595L39.1083 44.4609L39.6828 43.9073L40.4787 44.5841L40.2335 44.6595ZM41.6548 44.2225L40.7076 43.4247L41.4545 43.195L42.3951 43.9949L42.0353 44.1055L41.6548 44.2225ZM43.9517 43.5163L43.5712 43.6333L42.624 42.8354L43.3709 42.6058L44.3116 43.4057L43.9517 43.5163ZM48.5764 44.4218L47.181 43.2463L47.1268 43.0632L46.5474 41.1061L46.4932 40.9229L47.0167 39.1614C47.0218 39.1723 47.0251 39.1808 47.0268 39.1853C47.027 39.1857 47.0271 39.1861 47.0272 39.1864L48.5701 44.3988C48.5725 44.4069 48.5746 44.4146 48.5764 44.4218ZM46.029 42.8776L45.8681 42.9271L45.4876 43.0441L44.5405 42.2462L45.7335 41.8794L46.029 42.8776Z" fill="black" stroke="black"/>
<path d="M48.1939 13.3664L47.0763 13.575L47.4271 12.8548L48.3996 13.2085L48.1939 13.3664ZM49.3788 12.4569L48.2254 12.0435L48.8506 11.5636L49.9986 11.9812L49.6986 12.2114L49.3788 12.4569ZM51.2976 10.9841L50.9777 11.2296L49.8244 10.8162L50.4496 10.3363L51.5975 10.7538L51.2976 10.9841ZM55.9513 10.2116L54.235 9.5964L54.1233 9.44527L52.9166 7.81236L52.8049 7.66123L52.6989 5.81565C52.699 5.81578 52.6992 5.81592 52.6993 5.81606C52.7097 5.82611 52.7169 5.83421 52.7204 5.83825C52.7206 5.83849 52.7208 5.83871 52.7209 5.83891L55.9346 10.1876C55.941 10.1961 55.9465 10.2041 55.9513 10.2116ZM53.0329 9.65205L52.8965 9.75672L52.5767 10.0022L51.4233 9.58881L52.4205 8.82337L53.0329 9.65205Z" fill="black" stroke="black"/>
<path d="M49.0543 33.2871L47.9513 32.9823L48.5741 32.4854L49.3051 33.2354L49.0543 33.2871ZM50.5096 32.9871L49.6388 32.102L50.4031 31.9444L51.2671 32.8308L50.8986 32.9068L50.5096 32.9871ZM52.8606 32.5023L52.4715 32.5825L51.6008 31.6974L52.365 31.5398L53.2291 32.4263L52.8606 32.5023ZM57.3817 33.842L56.1009 32.5401L56.0637 32.3523L55.6659 30.3487L55.6286 30.1608L56.3104 28.4579C56.3143 28.4689 56.3168 28.4774 56.318 28.4819C56.3181 28.4824 56.3182 28.4828 56.3183 28.4831L57.3777 33.8194C57.3793 33.8274 57.3806 33.8349 57.3817 33.842ZM54.9869 32.0638L54.8226 32.0977L54.4335 32.1779L53.5628 31.2928L54.7838 31.041L54.9869 32.0638Z" fill="black" stroke="black"/>
<path d="M35.5754 53.8138L35.4993 52.6719L36.1738 53.096L35.7069 54.0335L35.5754 53.8138ZM36.3387 55.0886L36.887 53.9746L37.2879 54.6441L36.7361 55.7522L36.5428 55.4294L36.3387 55.0886ZM37.572 57.1481L37.3679 56.8072L37.9162 55.6933L38.3171 56.3627L37.7652 57.4709L37.572 57.1481ZM37.7986 61.858L38.6052 60.2195L38.7702 60.1223L40.5304 59.0858L40.6955 58.9887L42.5279 59.0705C42.5189 59.0778 42.5117 59.083 42.5078 59.0857C42.5074 59.0859 42.5071 59.0861 42.5068 59.0863L37.8187 61.8468C37.8117 61.8509 37.805 61.8547 37.7986 61.858ZM38.6873 59.0107L38.6011 58.8668L38.397 58.5259L38.9453 57.412L39.5858 58.4816L38.6873 59.0107Z" fill="black" stroke="black"/>
<path d="M40.2908 11.309L39.7916 12.3339L39.4377 11.6205L40.2899 11.0439L40.2908 11.309ZM40.2854 9.80016L39.282 10.4859L39.2791 9.68274L40.2825 9.00381L40.2839 9.38521L40.2854 9.80016ZM40.2765 7.34514L40.278 7.76009L39.2747 8.44585L39.2718 7.64267L40.2752 6.96374L40.2765 7.34514ZM42.4731 3.07859L40.9457 4.12251L40.7649 4.12318L38.7591 4.13069L38.5784 4.13136L37.0497 3.10308C37.0542 3.10214 37.0586 3.10129 37.063 3.10053C37.0765 3.09819 37.0866 3.09721 37.0914 3.09685C37.0915 3.09684 37.0915 3.09684 37.0916 3.09683L42.4327 3.07686C42.4482 3.0768 42.4615 3.07747 42.4731 3.07859ZM40.2685 5.12505L40.2692 5.30507L40.2707 5.72002L39.2673 6.40578L39.2627 5.12881L40.2685 5.12505Z" fill="black" stroke="black"/>
<path d="M24.0052 44.7385L24.9228 44.0709L24.9056 44.8718L23.884 44.9722L24.0052 44.7385ZM23.3127 46.0733L24.5197 45.949L24.1521 46.6574L22.9483 46.7757L23.1235 46.438L23.3127 46.0733ZM22.1878 48.2415L22.377 47.8768L23.584 47.7525L23.2165 48.4609L22.0126 48.5792L22.1878 48.2415ZM18.2853 50.9537L20.1085 50.7659L20.2698 50.8529L22.043 51.8084L22.2043 51.8953L23.0754 53.5305C23.0724 53.5296 23.0695 53.5287 23.0666 53.5277C23.0534 53.5232 23.0439 53.5191 23.0393 53.5171C23.0392 53.5171 23.0391 53.517 23.039 53.5169L18.317 50.9724C18.3049 50.9659 18.2944 50.9596 18.2853 50.9537ZM21.1705 50.2024L21.2521 50.045L21.4414 49.6803L22.6484 49.556L22.0634 50.6835L21.1705 50.2024Z" fill="black" stroke="black"/>
<path d="M37.56 45.0705L37.2209 43.9688L37.9642 44.235L37.7395 45.2597L37.56 45.0705ZM38.5905 46.1569L38.8509 44.9431L39.3959 45.5176L39.1308 46.7265L38.87 46.4516L38.5905 46.1569ZM40.2613 47.9183L39.9818 47.6237L40.2422 46.4099L40.7872 46.9844L40.5221 48.1933L40.2613 47.9183ZM41.582 52.5347L41.9717 50.7183L42.1043 50.5876L43.5464 49.1668L43.679 49.0361L45.4676 48.7018C45.4668 48.7028 45.4661 48.7039 45.4653 48.7049C45.4569 48.7165 45.45 48.7247 45.4465 48.7286C45.4464 48.7288 45.4462 48.729 45.4461 48.7291L41.6056 52.5129C41.5972 52.5212 41.5893 52.5284 41.582 52.5347ZM41.7723 49.5112L41.6526 49.3851L41.3731 49.0904L41.6335 47.8766L42.502 48.7922L41.7723 49.5112Z" fill="black" stroke="black"/>
</svg>
